<svg width="25" height="25" viewBox="0 0 25 25" fill="none" xmlns="http://www.w3.org/2000/svg">
<path d="M16.8561 5.48516e-05H8.20215C6.02537 -0.00509031 3.93611 0.856484 2.39659 2.39383C0.857451 3.9314 -0.00514183 6.01817 2.30611e-05 8.19263V16.8365C0.00259864 19.0009 0.864539 21.0759 2.39659 22.6062C3.92886 24.1367 6.00625 24.9976 8.17303 25H16.827C18.9939 24.9976 21.0713 24.1367 22.6034 22.6062C24.1355 21.0757 24.9974 19.0008 25 16.8365V8.19263C25.0051 6.02843 24.1505 3.95022 22.6238 2.41414C21.0969 0.878327 19.023 0.0100982 16.8561 5.48516e-05ZM18.1447 9.60436L9.24079 18.4979C9.01993 18.7166 8.73211 18.8551 8.42347 18.8918L6.41389 19.0839C6.28811 19.0959 6.16363 19.0511 6.07434 18.9619C5.98484 18.8727 5.9402 18.7483 5.95221 18.6227L6.13486 16.6058C6.16384 16.2945 6.2997 16.0025 6.51948 15.7798L15.4333 6.8862C15.6838 6.62294 16.0313 6.47437 16.3949 6.47437C16.7584 6.47437 17.1059 6.62315 17.3564 6.88641L18.1737 7.70278C18.4249 7.95746 18.5631 8.3022 18.5577 8.65959C18.5523 9.01696 18.4034 9.35739 18.1447 9.60436Z" fill="#1976d2"/>
</svg>
